<svg xmlns="http://www.w3.org/2000/svg" viewBox="0 0 1200 220" shape-rendering="crispEdges" width="1200" height="220"><circle cx="1042" cy="60" r="46" fill="#8f9aff" opacity="0.12"/><circle cx="1042" cy="60" r="30" fill="#dfe4ff" opacity="0.95"/><circle cx="1034" cy="52" r="18" fill="#c7cdff" opacity="0.5"/><rect x="14" y="11" width="2" height="2" fill="#ffffff" opacity="0.72"/><rect x="625" y="77" width="2" height="2" fill="#4fe6d8" opacity="0.44"/><rect x="663" y="138" width="2" height="2" fill="#4fe6d8" opacity="0.39"/><rect x="916" y="98" width="2" height="2" fill="#cdd6ff" opacity="0.52"/><rect x="351" y="101" width="2" height="2" fill="#4fe6d8" opacity="0.89"/><rect x="297" y="166" width="2" height="2" fill="#cdd6ff" opacity="0.39"/><rect x="185" y="55" width="2" height="2" fill="#ff5fa8" opacity="0.76"/><rect x="89" y="173" width="2" height="2" fill="#ff5fa8" opacity="0.67"/><rect x="816" y="183" width="2" height="2" fill="#ff5fa8" opacity="0.85"/><rect x="993" y="7" width="2" height="2" fill="#cdd6ff" opacity="0.51"/><rect x="510" y="3" width="2" height="2" fill="#cdd6ff" opacity="0.76"/><rect x="442" y="81" width="2" height="2" fill="#4fe6d8" opacity="0.87"/><rect x="843" y="130" width="2" height="2" fill="#4fe6d8" opacity="0.51"/><rect x="166" y="25" width="2" height="2" fill="#ffffff" opacity="0.49"/><rect x="228" y="120" width="2" height="2" fill="#4fe6d8" opacity="0.33"/><rect x="821" y="175" width="2" height="2" fill="#ff5fa8" opacity="0.80"/><rect x="786" y="174" width="2" height="2" fill="#cdd6ff" opacity="0.62"/><rect x="778" y="169" width="2" height="2" fill="#ffffff" opacity="0.80"/><rect x="713" y="183" width="2" height="2" fill="#ffffff" opacity="0.63"/><rect x="982" y="1" width="2" height="2" fill="#ff5fa8" opacity="0.50"/><rect x="869" y="104" width="2" height="2" fill="#ffffff" opacity="0.89"/><rect x="669" y="156" width="2" height="2" fill="#4fe6d8" opacity="0.69"/><rect x="886" y="104" width="2" height="2" fill="#4fe6d8" opacity="0.44"/><rect x="11" y="4" width="2" height="2" fill="#ffffff" opacity="0.80"/><rect x="756" y="2" width="2" height="2" fill="#ff5fa8" opacity="0.66"/><rect x="860" y="189" width="2" height="2" fill="#4fe6d8" opacity="0.89"/><rect x="779" y="152" width="2" height="2" fill="#ff5fa8" opacity="0.80"/><rect x="166" y="188" width="2" height="2" fill="#ff5fa8" opacity="0.64"/><rect x="193" y="75" width="2" height="2" fill="#cdd6ff" opacity="0.79"/><rect x="1033" y="139" width="2" height="2" fill="#ff5fa8" opacity="0.89"/><rect x="731" y="139" width="2" height="2" fill="#ffffff" opacity="0.59"/><rect x="275" y="110" width="2" height="2" fill="#ffffff" opacity="0.81"/><rect x="227" y="105" width="2" height="2" fill="#4fe6d8" opacity="0.62"/><rect x="216" y="47" width="2" height="2" fill="#4fe6d8" opacity="0.59"/><rect x="205" y="0" width="2" height="2" fill="#cdd6ff" opacity="0.31"/><rect x="128" y="166" width="2" height="2" fill="#ffffff" opacity="0.34"/><rect x="209" y="76" width="2" height="2" fill="#4fe6d8" opacity="0.74"/><rect x="441" y="68" width="2" height="2" fill="#ffffff" opacity="0.73"/><rect x="960" y="100" width="2" height="2" fill="#ffffff" opacity="0.55"/><rect x="675" y="55" width="2" height="2" fill="#ff5fa8" opacity="0.77"/><rect x="96" y="47" width="2" height="2" fill="#ffffff" opacity="0.80"/><rect x="929" y="81" width="2" height="2" fill="#4fe6d8" opacity="0.85"/><rect x="301" y="68" width="2" height="2" fill="#4fe6d8" opacity="0.80"/><rect x="484" y="185" width="2" height="2" fill="#ff5fa8" opacity="0.56"/><rect x="406" y="102" width="2" height="2" fill="#4fe6d8" opacity="0.83"/><rect x="686" y="187" width="2" height="2" fill="#ffffff" opacity="0.60"/><rect x="524" y="132" width="2" height="2" fill="#ffffff" opacity="0.63"/><rect x="788" y="30" width="2" height="2" fill="#ff5fa8" opacity="0.53"/><rect x="731" y="162" width="2" height="2" fill="#4fe6d8" opacity="0.48"/><rect x="108" y="129" width="2" height="2" fill="#ff5fa8" opacity="0.88"/><rect x="380" y="49" width="2" height="2" fill="#cdd6ff" opacity="0.73"/><rect x="1111" y="148" width="2" height="2" fill="#ffffff" opacity="0.88"/><rect x="271" y="185" width="2" height="2" fill="#4fe6d8" opacity="0.62"/><rect x="469" y="135" width="2" height="2" fill="#ffffff" opacity="0.67"/><rect x="870" y="118" width="2" height="2" fill="#ff5fa8" opacity="0.46"/><rect x="998" y="91" width="2" height="2" fill="#cdd6ff" opacity="0.73"/><rect x="556" y="106" width="2" height="2" fill="#ff5fa8" opacity="0.83"/><rect x="1143" y="29" width="2" height="2" fill="#cdd6ff" opacity="0.47"/><rect x="628" y="74" width="2" height="2" fill="#ffffff" opacity="0.81"/><rect x="636" y="172" width="2" height="2" fill="#4fe6d8" opacity="0.60"/><rect x="1111" y="128" width="2" height="2" fill="#ffffff" opacity="0.50"/><rect x="1091" y="184" width="2" height="2" fill="#ffffff" opacity="0.30"/><rect x="200" y="142" width="2" height="2" fill="#cdd6ff" opacity="0.35"/><rect x="1094" y="51" width="2" height="2" fill="#ff5fa8" opacity="0.46"/><rect x="952" y="136" width="2" height="2" fill="#cdd6ff" opacity="0.57"/><rect x="1175" y="15" width="2" height="2" fill="#cdd6ff" opacity="0.53"/><rect x="947" y="131" width="2" height="2" fill="#4fe6d8" opacity="0.60"/><rect x="127" y="91" width="2" height="2" fill="#4fe6d8" opacity="0.63"/><rect x="201" y="146" width="2" height="2" fill="#4fe6d8" opacity="0.72"/><rect x="998" y="7" width="2" height="2" fill="#cdd6ff" opacity="0.73"/><rect x="1071" y="53" width="2" height="2" fill="#ffffff" opacity="0.69"/><rect x="386" y="18" width="2" height="2" fill="#cdd6ff" opacity="0.89"/><rect x="832" y="48" width="2" height="2" fill="#ff5fa8" opacity="0.34"/><rect x="619" y="81" width="2" height="2" fill="#ffffff" opacity="0.40"/><rect x="889" y="32" width="2" height="2" fill="#cdd6ff" opacity="0.42"/><rect x="1056" y="5" width="2" height="2" fill="#cdd6ff" opacity="0.86"/><rect x="1105" y="91" width="2" height="2" fill="#ff5fa8" opacity="0.72"/><rect x="204" y="98" width="2" height="2" fill="#cdd6ff" opacity="0.66"/><rect x="865" y="160" width="2" height="2" fill="#cdd6ff" opacity="0.64"/><rect x="444" y="10" width="2" height="2" fill="#ffffff" opacity="0.46"/><rect x="186" y="53" width="2" height="2" fill="#4fe6d8" opacity="0.78"/><rect x="988" y="164" width="2" height="2" fill="#ffffff" opacity="0.72"/><rect x="1037" y="121" width="2" height="2" fill="#ff5fa8" opacity="0.71"/><rect x="370" y="76" width="2" height="2" fill="#ff5fa8" opacity="0.50"/><rect x="290" y="94" width="2" height="2" fill="#ff5fa8" opacity="0.71"/><rect x="511" y="135" width="2" height="2" fill="#cdd6ff" opacity="0.74"/><rect x="623" y="83" width="2" height="2" fill="#4fe6d8" opacity="0.79"/><rect x="149" y="105" width="2" height="2" fill="#ff5fa8" opacity="0.70"/><rect x="752" y="14" width="2" height="2" fill="#4fe6d8" opacity="0.87"/><rect x="854" y="97" width="2" height="2" fill="#ff5fa8" opacity="0.49"/><rect x="1170" y="11" width="2" height="2" fill="#ffffff" opacity="0.57"/><rect x="269" y="93" width="2" height="2" fill="#cdd6ff" opacity="0.81"/><rect x="1199" y="101" width="2" height="2" fill="#ffffff" opacity="0.40"/><rect x="578" y="33" width="2" height="2" fill="#cdd6ff" opacity="0.72"/><rect x="915" y="41" width="2" height="2" fill="#cdd6ff" opacity="0.59"/><rect x="797" y="59" width="2" height="2" fill="#ff5fa8" opacity="0.86"/><rect x="352" y="104" width="2" height="2" fill="#ff5fa8" opacity="0.48"/><rect x="124" y="120" width="2" height="2" fill="#cdd6ff" opacity="0.63"/><rect x="544" y="127" width="2" height="2" fill="#ffffff" opacity="0.74"/><rect x="690" y="147" width="2" height="2" fill="#ff5fa8" opacity="0.75"/><rect x="736" y="116" width="2" height="2" fill="#ff5fa8" opacity="0.71"/><rect x="916" y="137" width="2" height="2" fill="#ffffff" opacity="0.82"/><rect x="809" y="119" width="2" height="2" fill="#cdd6ff" opacity="0.45"/><rect x="1193" y="38" width="2" height="2" fill="#ffffff" opacity="0.32"/><rect x="896" y="98" width="2" height="2" fill="#ffffff" opacity="0.46"/><rect x="219" y="62" width="2" height="2" fill="#ff5fa8" opacity="0.69"/><rect x="393" y="20" width="2" height="2" fill="#4fe6d8" opacity="0.86"/><rect x="113" y="28" width="2" height="2" fill="#4fe6d8" opacity="0.74"/><rect x="0" y="135" width="2" height="2" fill="#cdd6ff" opacity="0.89"/><rect x="609" y="184" width="2" height="2" fill="#ff5fa8" opacity="0.53"/></svg>